<svg width="20" height="20" viewBox="0 0 20 20" fill="none" xmlns="http://www.w3.org/2000/svg">
<g clip-path="url(#clip0_8336_1796)">
<path fill-rule="evenodd" clip-rule="evenodd" d="M9.16496 2.50027C9.16496 1.60568 9.90764 0.778885 10.9129 0.879409C13.0174 1.09027 14.9845 2.02245 16.4802 3.51789C17.976 5.01332 18.9086 6.98 19.12 9.08451C19.2205 10.0885 18.3943 10.8327 17.4992 10.8328C17.4992 10.8328 17.4993 10.8328 17.4992 10.8328L10.8317 10.8336C10.3897 10.8336 9.96567 10.658 9.65311 10.3455C9.34055 10.0329 9.16496 9.60897 9.16496 9.16694V2.50027ZM10.8316 2.54677C12.5215 2.73549 14.0982 3.49309 15.3019 4.69653C16.5055 5.89993 17.2635 7.4763 17.4526 9.16611L10.8316 9.16694V2.54677ZM7.42948 2.02461C7.61355 2.44643 7.42082 2.93761 6.999 3.12168C5.87616 3.61167 4.89045 4.36926 4.12803 5.3282C3.36562 6.28715 2.84973 7.41827 2.62545 8.62266C2.40117 9.82705 2.47534 11.068 2.84148 12.2371C3.20761 13.4062 3.85456 14.4679 4.72576 15.3292C5.59697 16.1905 6.6659 16.8253 7.83911 17.178C9.01232 17.5308 10.2541 17.5908 11.4558 17.3528C12.6576 17.1148 13.7827 16.586 14.7329 15.8127C15.6831 15.0393 16.4294 14.045 16.9065 12.9167C17.0857 12.4928 17.5747 12.2945 17.9986 12.4737C18.4225 12.653 18.6208 13.1419 18.4416 13.5658C17.8584 14.9449 16.9463 16.1602 15.785 17.1053C14.6236 18.0505 13.2484 18.6968 11.7796 18.9877C10.3108 19.2786 8.79312 19.2053 7.3592 18.7741C5.92528 18.343 4.61881 17.5671 3.554 16.5144C2.4892 15.4617 1.69848 14.1642 1.25098 12.7352C0.803485 11.3063 0.712832 9.78957 0.986949 8.31754C1.26107 6.84551 1.89161 5.46304 2.82344 4.29099C3.75528 3.11894 4.96004 2.193 6.3324 1.59413C6.75422 1.41005 7.2454 1.60278 7.42948 2.02461Z" fill="white"/>
</g>
<defs>
<clipPath id="clip0_8336_1796">
<rect width="20" height="20" fill="white"/>
</clipPath>
</defs>
</svg>
