<svg width="20" height="20" viewBox="0 0 20 20" fill="none" xmlns="http://www.w3.org/2000/svg">
<g clip-path="url(#clip0_8336_1856)">
<path fill-rule="evenodd" clip-rule="evenodd" d="M6.66536 2.4987C6.44435 2.4987 6.23239 2.5865 6.07611 2.74278C5.91983 2.89906 5.83203 3.11102 5.83203 3.33203V17.4987H14.1654V3.33203C14.1654 3.11102 14.0776 2.89906 13.9213 2.74278C13.765 2.5865 13.553 2.4987 13.332 2.4987H6.66536ZM15.832 6.66536V3.33203C15.832 2.66899 15.5686 2.03311 15.0998 1.56426C14.631 1.09542 13.9951 0.832031 13.332 0.832031H6.66536C6.00232 0.832031 5.36644 1.09542 4.8976 1.56426C4.42876 2.03311 4.16536 2.66899 4.16536 3.33203V9.16537H3.33203C2.66899 9.16537 2.03311 9.42876 1.56426 9.8976C1.09542 10.3664 0.832031 11.0023 0.832031 11.6654V16.6654C0.832031 17.3284 1.09542 17.9643 1.56426 18.4331C2.03311 18.902 2.66899 19.1654 3.33203 19.1654H16.6654C17.3284 19.1654 17.9643 18.902 18.4331 18.4331C18.902 17.9643 19.1654 17.3284 19.1654 16.6654V9.16537C19.1654 8.50232 18.902 7.86644 18.4331 7.3976C17.9643 6.92876 17.3284 6.66536 16.6654 6.66536H15.832ZM15.832 8.33203V17.4987H16.6654C16.8864 17.4987 17.0983 17.4109 17.2546 17.2546C17.4109 17.0983 17.4987 16.8864 17.4987 16.6654V9.16537C17.4987 8.94435 17.4109 8.73239 17.2546 8.57611C17.0983 8.41983 16.8864 8.33203 16.6654 8.33203H15.832ZM4.16536 10.832H3.33203C3.11102 10.832 2.89906 10.9198 2.74278 11.0761C2.5865 11.2324 2.4987 11.4444 2.4987 11.6654V16.6654C2.4987 16.8864 2.5865 17.0983 2.74278 17.2546C2.89906 17.4109 3.11102 17.4987 3.33203 17.4987H4.16536V10.832ZM7.4987 4.9987C7.4987 4.53846 7.87179 4.16536 8.33203 4.16536H11.6654C12.1256 4.16536 12.4987 4.53846 12.4987 4.9987C12.4987 5.45894 12.1256 5.83203 11.6654 5.83203H8.33203C7.87179 5.83203 7.4987 5.45894 7.4987 4.9987ZM7.4987 8.33203C7.4987 7.87179 7.87179 7.4987 8.33203 7.4987H11.6654C12.1256 7.4987 12.4987 7.87179 12.4987 8.33203C12.4987 8.79227 12.1256 9.16537 11.6654 9.16537H8.33203C7.87179 9.16537 7.4987 8.79227 7.4987 8.33203ZM7.4987 11.6654C7.4987 11.2051 7.87179 10.832 8.33203 10.832H11.6654C12.1256 10.832 12.4987 11.2051 12.4987 11.6654C12.4987 12.1256 12.1256 12.4987 11.6654 12.4987H8.33203C7.87179 12.4987 7.4987 12.1256 7.4987 11.6654ZM7.4987 14.9987C7.4987 14.5385 7.87179 14.1654 8.33203 14.1654H11.6654C12.1256 14.1654 12.4987 14.5385 12.4987 14.9987C12.4987 15.4589 12.1256 15.832 11.6654 15.832H8.33203C7.87179 15.832 7.4987 15.4589 7.4987 14.9987Z" fill="white"/>
</g>
<defs>
<clipPath id="clip0_8336_1856">
<rect width="20" height="20" fill="white"/>
</clipPath>
</defs>
</svg>
