<svg width="20" height="20" viewBox="0 0 20 20" fill="none" xmlns="http://www.w3.org/2000/svg">
<path fill-rule="evenodd" clip-rule="evenodd" d="M10 2.4987C8.4529 2.4987 6.96917 3.11328 5.87521 4.20724C4.78125 5.3012 4.16667 6.78494 4.16667 8.33203C4.16667 10.1315 5.18056 12.0709 6.49812 13.802C7.77169 15.4753 9.23308 16.8304 10 17.4959C10.7669 16.8304 12.2283 15.4753 13.5019 13.802C14.8194 12.0709 15.8333 10.1315 15.8333 8.33203C15.8333 6.78494 15.2188 5.3012 14.1248 4.20724C13.0308 3.11328 11.5471 2.4987 10 2.4987ZM4.6967 3.02873C6.10322 1.62221 8.01088 0.832031 10 0.832031C11.9891 0.832031 13.8968 1.62221 15.3033 3.02873C16.7098 4.43525 17.5 6.34291 17.5 8.33203C17.5 10.6934 16.206 13.0011 14.8281 14.8114C13.4309 16.6471 11.8414 18.108 11.0454 18.7953C11.0313 18.8075 11.0167 18.8193 11.0017 18.8306C10.7129 19.0477 10.3613 19.1652 10 19.1652C9.63867 19.1652 9.28713 19.0477 8.99833 18.8306C8.98335 18.8193 8.96875 18.8075 8.95455 18.7953C8.15857 18.108 6.56906 16.6471 5.17188 14.8114C3.79402 13.0011 2.5 10.6934 2.5 8.33203C2.5 6.34291 3.29018 4.43525 4.6967 3.02873ZM10 4.9987C10.4602 4.9987 10.8333 5.37179 10.8333 5.83203V7.4987H12.5C12.9602 7.4987 13.3333 7.87179 13.3333 8.33203C13.3333 8.79227 12.9602 9.16537 12.5 9.16537H10.8333V10.832C10.8333 11.2923 10.4602 11.6654 10 11.6654C9.53976 11.6654 9.16667 11.2923 9.16667 10.832V9.16537H7.5C7.03976 9.16537 6.66667 8.79227 6.66667 8.33203C6.66667 7.87179 7.03976 7.4987 7.5 7.4987H9.16667V5.83203C9.16667 5.37179 9.53976 4.9987 10 4.9987Z" fill="white"/>
</svg>
