<svg width="20" height="20" viewBox="0 0 20 20" fill="none" xmlns="http://www.w3.org/2000/svg">
<g clip-path="url(#clip0_8336_2245)">
<path fill-rule="evenodd" clip-rule="evenodd" d="M6.66536 2.4987C6.66536 1.57822 7.41156 0.832031 8.33203 0.832031H11.6654C12.5858 0.832031 13.332 1.57822 13.332 2.4987V5.83203C13.332 6.75251 12.5858 7.4987 11.6654 7.4987H10.832V9.16537H14.9987C15.4407 9.16537 15.8646 9.34096 16.1772 9.65352C16.4898 9.96608 16.6654 10.39 16.6654 10.832V12.4987H17.4987C18.4192 12.4987 19.1654 13.2449 19.1654 14.1654V17.4987C19.1654 18.4192 18.4192 19.1654 17.4987 19.1654H14.1654C13.2449 19.1654 12.4987 18.4192 12.4987 17.4987V14.1654C12.4987 13.2449 13.2449 12.4987 14.1654 12.4987H14.9987V10.832H4.9987V12.4987H5.83203C6.75251 12.4987 7.4987 13.2449 7.4987 14.1654V17.4987C7.4987 18.4192 6.75251 19.1654 5.83203 19.1654H2.4987C1.57822 19.1654 0.832031 18.4192 0.832031 17.4987V14.1654C0.832031 13.2449 1.57822 12.4987 2.4987 12.4987H3.33203V10.832C3.33203 10.39 3.50763 9.96608 3.82019 9.65352C4.13275 9.34096 4.55667 9.16537 4.9987 9.16537H9.16537V7.4987H8.33203C7.41156 7.4987 6.66536 6.75251 6.66536 5.83203V2.4987ZM11.6654 5.83203V2.4987H8.33203V5.83203H11.6654ZM2.4987 14.1654V17.4987H5.83203V14.1654H2.4987ZM14.1654 14.1654V17.4987H17.4987V14.1654H14.1654Z" fill="white"/>
</g>
<defs>
<clipPath id="clip0_8336_2245">
<rect width="20" height="20" fill="white"/>
</clipPath>
</defs>
</svg>
