<svg width="16" height="16" viewBox="0 0 16 16" fill="none" xmlns="http://www.w3.org/2000/svg">
<path fill-rule="evenodd" clip-rule="evenodd" d="M3.9987 1.33464C3.9987 0.966446 4.29717 0.667969 4.66536 0.667969H11.332C11.7002 0.667969 11.9987 0.966446 11.9987 1.33464C11.9987 1.70283 11.7002 2.0013 11.332 2.0013H4.66536C4.29717 2.0013 3.9987 1.70283 3.9987 1.33464ZM2.66536 4.0013C2.66536 3.63311 2.96384 3.33464 3.33203 3.33464H12.6654C13.0336 3.33464 13.332 3.63311 13.332 4.0013C13.332 4.36949 13.0336 4.66797 12.6654 4.66797H3.33203C2.96384 4.66797 2.66536 4.36949 2.66536 4.0013ZM3.33203 7.33464C2.96384 7.33464 2.66536 7.63311 2.66536 8.0013V13.3346C2.66536 13.7028 2.96384 14.0013 3.33203 14.0013H12.6654C13.0336 14.0013 13.332 13.7028 13.332 13.3346V8.0013C13.332 7.63311 13.0336 7.33464 12.6654 7.33464H3.33203ZM1.33203 8.0013C1.33203 6.89673 2.22746 6.0013 3.33203 6.0013H12.6654C13.7699 6.0013 14.6654 6.89673 14.6654 8.0013V13.3346C14.6654 14.4392 13.7699 15.3346 12.6654 15.3346H3.33203C2.22746 15.3346 1.33203 14.4392 1.33203 13.3346V8.0013Z" fill="#FAFAFA"/>
</svg>
