<svg width="20" height="20" viewBox="0 0 20 20" fill="none" xmlns="http://www.w3.org/2000/svg">
<path fill-rule="evenodd" clip-rule="evenodd" d="M7.4987 3.33464C6.11799 3.33464 4.9987 4.45392 4.9987 5.83464C4.9987 7.21535 6.11799 8.33464 7.4987 8.33464C8.87941 8.33464 9.9987 7.21535 9.9987 5.83464C9.9987 4.45392 8.87941 3.33464 7.4987 3.33464ZM3.33203 5.83464C3.33203 3.53345 5.19751 1.66797 7.4987 1.66797C9.79988 1.66797 11.6654 3.53345 11.6654 5.83464C11.6654 8.13582 9.79988 10.0013 7.4987 10.0013C5.19751 10.0013 3.33203 8.13582 3.33203 5.83464ZM12.5247 2.40284C12.6389 1.95698 13.0929 1.68809 13.5387 1.80225C14.435 2.03173 15.2294 2.55298 15.7967 3.28382C16.364 4.01466 16.6719 4.91353 16.6719 5.8387C16.6719 6.76388 16.364 7.66275 15.7967 8.39359C15.2294 9.12443 14.435 9.64568 13.5387 9.87516C13.0929 9.98932 12.6389 9.72042 12.5247 9.27457C12.4106 8.82872 12.6795 8.37474 13.1253 8.26058C13.6631 8.12289 14.1397 7.81014 14.4801 7.37163C14.8205 6.93313 15.0052 6.39381 15.0052 5.8387C15.0052 5.2836 14.8205 4.74428 14.4801 4.30577C14.1397 3.86727 13.6631 3.55452 13.1253 3.41683C12.6795 3.30267 12.4106 2.84869 12.5247 2.40284ZM2.05242 12.8884C2.83382 12.107 3.89363 11.668 4.9987 11.668H9.9987C11.1038 11.668 12.1636 12.107 12.945 12.8884C13.7264 13.6698 14.1654 14.7296 14.1654 15.8346V17.5013C14.1654 17.9615 13.7923 18.3346 13.332 18.3346C12.8718 18.3346 12.4987 17.9615 12.4987 17.5013V15.8346C12.4987 15.1716 12.2353 14.5357 11.7665 14.0669C11.2976 13.598 10.6617 13.3346 9.9987 13.3346H4.9987C4.33566 13.3346 3.69977 13.598 3.23093 14.0669C2.76209 14.5357 2.4987 15.1716 2.4987 15.8346V17.5013C2.4987 17.9615 2.1256 18.3346 1.66536 18.3346C1.20513 18.3346 0.832031 17.9615 0.832031 17.5013V15.8346C0.832031 14.7296 1.27102 13.6698 2.05242 12.8884ZM15.0252 12.4012C15.1402 11.9556 15.5947 11.6876 16.0404 11.8027C16.9342 12.0335 17.7262 12.5546 18.2918 13.2842C18.8574 14.0139 19.1647 14.9107 19.1654 15.8339V17.5012C19.1654 17.9614 18.7923 18.3345 18.332 18.3345C17.8718 18.3345 17.4987 17.9614 17.4987 17.5012V15.8352C17.4983 15.2812 17.3139 14.7431 16.9746 14.3054C16.6352 13.8676 16.16 13.5549 15.6237 13.4164C15.1781 13.3013 14.9101 12.8468 15.0252 12.4012Z" fill="white"/>
</svg>
